<mxfile host="app.diagrams.net" modified="2023-04-04T12:37:20.156Z" agent="Mozilla/5.0 (Windows NT 10.0; Win64; x64) AppleWebKit/537.36 (KHTML, like Gecko) Chrome/111.0.0.0 Safari/537.36" etag="at1DnDd3W0NOjqXhNTwC" version="21.1.4" type="device">
  <diagram name="Page-1" id="3wJAoWSOx6QYY3Pvcc9u">
    <mxGraphModel dx="1290" dy="1710" grid="1" gridSize="10" guides="1" tooltips="1" connect="1" arrows="1" fold="1" page="1" pageScale="1" pageWidth="827" pageHeight="1169" math="0" shadow="0">
      <root>
        <mxCell id="0" />
        <mxCell id="1" parent="0" />
        <mxCell id="VqaUVUZdWkBCZ70Wt7m--1" value="" style="whiteSpace=wrap;html=1;aspect=fixed;fontStyle=1" parent="1" vertex="1">
          <mxGeometry x="161.13" y="80" width="390" height="390" as="geometry" />
        </mxCell>
        <mxCell id="VqaUVUZdWkBCZ70Wt7m--3" value="Home-page" style="text;html=1;strokeColor=none;fillColor=none;align=center;verticalAlign=middle;whiteSpace=wrap;rounded=0;" parent="1" vertex="1">
          <mxGeometry x="304.5" y="130" width="95" height="30" as="geometry" />
        </mxCell>
        <mxCell id="VqaUVUZdWkBCZ70Wt7m--47" value="Home" style="rounded=1;whiteSpace=wrap;html=1;" parent="1" vertex="1">
          <mxGeometry x="170" y="165" width="76" height="15" as="geometry" />
        </mxCell>
        <mxCell id="VqaUVUZdWkBCZ70Wt7m--48" value="Create Weekly Chores List" style="rounded=1;whiteSpace=wrap;html=1;" parent="1" vertex="1">
          <mxGeometry x="260" y="165" width="76" height="40" as="geometry" />
        </mxCell>
        <mxCell id="VqaUVUZdWkBCZ70Wt7m--49" value="View Task" style="rounded=1;whiteSpace=wrap;html=1;" parent="1" vertex="1">
          <mxGeometry x="350" y="165" width="76" height="15" as="geometry" />
        </mxCell>
        <mxCell id="VqaUVUZdWkBCZ70Wt7m--50" value="Achievement" style="rounded=1;whiteSpace=wrap;html=1;" parent="1" vertex="1">
          <mxGeometry x="440" y="165" width="76" height="15" as="geometry" />
        </mxCell>
        <mxCell id="VqaUVUZdWkBCZ70Wt7m--58" value="" style="rounded=1;whiteSpace=wrap;html=1;" parent="1" vertex="1">
          <mxGeometry x="180" y="235" width="360" height="85" as="geometry" />
        </mxCell>
        <mxCell id="VqaUVUZdWkBCZ70Wt7m--59" value="User1-Profile" style="text;html=1;strokeColor=none;fillColor=none;align=center;verticalAlign=middle;whiteSpace=wrap;rounded=0;" parent="1" vertex="1">
          <mxGeometry x="311" y="235" width="88" height="30" as="geometry" />
        </mxCell>
        <mxCell id="VqaUVUZdWkBCZ70Wt7m--60" value="" style="rounded=1;whiteSpace=wrap;html=1;" parent="1" vertex="1">
          <mxGeometry x="180" y="340" width="360" height="85" as="geometry" />
        </mxCell>
        <mxCell id="VqaUVUZdWkBCZ70Wt7m--61" value="User2-Profile" style="text;html=1;strokeColor=none;fillColor=none;align=center;verticalAlign=middle;whiteSpace=wrap;rounded=0;" parent="1" vertex="1">
          <mxGeometry x="316" y="348" width="88" height="30" as="geometry" />
        </mxCell>
        <mxCell id="VqaUVUZdWkBCZ70Wt7m--62" value="some personal&amp;nbsp; information" style="text;html=1;strokeColor=none;fillColor=none;align=center;verticalAlign=middle;whiteSpace=wrap;rounded=0;" parent="1" vertex="1">
          <mxGeometry x="251" y="280" width="189" height="30" as="geometry" />
        </mxCell>
        <mxCell id="VqaUVUZdWkBCZ70Wt7m--63" value="some personal&amp;nbsp; information" style="text;html=1;strokeColor=none;fillColor=none;align=center;verticalAlign=middle;whiteSpace=wrap;rounded=0;" parent="1" vertex="1">
          <mxGeometry x="265.5" y="378" width="189" height="30" as="geometry" />
        </mxCell>
        <mxCell id="XX2jFR_vDhJVu820eyDR-1" value="We need to put instructions for the users." style="text;html=1;strokeColor=none;fillColor=none;align=center;verticalAlign=middle;whiteSpace=wrap;rounded=0;" parent="1" vertex="1">
          <mxGeometry x="630" y="40" width="95" height="30" as="geometry" />
        </mxCell>
        <mxCell id="XX2jFR_vDhJVu820eyDR-2" value="In the view task list this will be showed end of the week.&lt;br&gt;If statement to show what are the achievements have been gained by the week.&lt;br&gt;&lt;br&gt;Like:&lt;br&gt;&lt;br&gt;1) &amp;lt;=30 % work done - The system will show. Keep it up for getting more better scores.(Bronze)&lt;br&gt;&lt;br&gt;2) &amp;lt;=70 % work done - The system will show. Well done, for getting good better scores.(Gold)&lt;br&gt;&lt;br&gt;1) &amp;lt;=100 % work done - The system will show. Great job, for getting Higher scores.(Dimond)" style="text;html=1;strokeColor=none;fillColor=none;align=center;verticalAlign=middle;whiteSpace=wrap;rounded=0;" parent="1" vertex="1">
          <mxGeometry x="1121" y="-181" width="444.5" height="260" as="geometry" />
        </mxCell>
        <mxCell id="653XAPUzcPICb7R3QCx9-1" value="" style="group" vertex="1" connectable="0" parent="1">
          <mxGeometry x="1160" y="680" width="329" height="130" as="geometry" />
        </mxCell>
        <mxCell id="VqaUVUZdWkBCZ70Wt7m--37" value="" style="rounded=0;whiteSpace=wrap;html=1;dashed=1;dashPattern=12 12;" parent="653XAPUzcPICb7R3QCx9-1" vertex="1">
          <mxGeometry width="329" height="130" as="geometry" />
        </mxCell>
        <mxCell id="VqaUVUZdWkBCZ70Wt7m--35" value="" style="rounded=1;whiteSpace=wrap;html=1;" parent="653XAPUzcPICb7R3QCx9-1" vertex="1">
          <mxGeometry x="170" y="45" width="120" height="20" as="geometry" />
        </mxCell>
        <mxCell id="VqaUVUZdWkBCZ70Wt7m--34" value="" style="rounded=1;whiteSpace=wrap;html=1;" parent="653XAPUzcPICb7R3QCx9-1" vertex="1">
          <mxGeometry x="170" y="21" width="120" height="20" as="geometry" />
        </mxCell>
        <mxCell id="VqaUVUZdWkBCZ70Wt7m--32" value="Task Name" style="text;html=1;strokeColor=none;fillColor=none;align=center;verticalAlign=middle;whiteSpace=wrap;rounded=0;" parent="653XAPUzcPICb7R3QCx9-1" vertex="1">
          <mxGeometry x="10" y="15" width="112.5" height="30" as="geometry" />
        </mxCell>
        <mxCell id="VqaUVUZdWkBCZ70Wt7m--36" value="Task Desc" style="text;html=1;strokeColor=none;fillColor=none;align=center;verticalAlign=middle;whiteSpace=wrap;rounded=0;" parent="653XAPUzcPICb7R3QCx9-1" vertex="1">
          <mxGeometry x="8" y="35" width="112.5" height="30" as="geometry" />
        </mxCell>
        <mxCell id="VqaUVUZdWkBCZ70Wt7m--38" value="Add new task" style="rounded=1;whiteSpace=wrap;html=1;" parent="653XAPUzcPICb7R3QCx9-1" vertex="1">
          <mxGeometry x="220" y="100" width="80" height="20" as="geometry" />
        </mxCell>
        <mxCell id="VqaUVUZdWkBCZ70Wt7m--56" value="Task Status" style="text;html=1;strokeColor=none;fillColor=none;align=center;verticalAlign=middle;whiteSpace=wrap;rounded=0;" parent="653XAPUzcPICb7R3QCx9-1" vertex="1">
          <mxGeometry x="11" y="54" width="112.5" height="30" as="geometry" />
        </mxCell>
        <mxCell id="VqaUVUZdWkBCZ70Wt7m--57" value="Temporary/Permanent" style="rounded=1;whiteSpace=wrap;html=1;" parent="653XAPUzcPICb7R3QCx9-1" vertex="1">
          <mxGeometry x="170" y="69" width="120" height="20" as="geometry" />
        </mxCell>
        <mxCell id="653XAPUzcPICb7R3QCx9-2" value="" style="group" vertex="1" connectable="0" parent="1">
          <mxGeometry x="640" y="80" width="450" height="450" as="geometry" />
        </mxCell>
        <mxCell id="VqaUVUZdWkBCZ70Wt7m--2" value="" style="whiteSpace=wrap;html=1;aspect=fixed;" parent="653XAPUzcPICb7R3QCx9-2" vertex="1">
          <mxGeometry width="450" height="450" as="geometry" />
        </mxCell>
        <mxCell id="VqaUVUZdWkBCZ70Wt7m--4" value="Task-list" style="text;html=1;strokeColor=none;fillColor=none;align=center;verticalAlign=middle;whiteSpace=wrap;rounded=0;" parent="653XAPUzcPICb7R3QCx9-2" vertex="1">
          <mxGeometry x="137.5" y="26" width="95" height="30" as="geometry" />
        </mxCell>
        <mxCell id="VqaUVUZdWkBCZ70Wt7m--6" value="Task" style="rounded=0;whiteSpace=wrap;html=1;" parent="653XAPUzcPICb7R3QCx9-2" vertex="1">
          <mxGeometry x="17.5" y="90" width="72.5" height="34" as="geometry" />
        </mxCell>
        <mxCell id="VqaUVUZdWkBCZ70Wt7m--8" value="Desc" style="rounded=0;whiteSpace=wrap;html=1;" parent="653XAPUzcPICb7R3QCx9-2" vertex="1">
          <mxGeometry x="82" y="90" width="78" height="34" as="geometry" />
        </mxCell>
        <mxCell id="VqaUVUZdWkBCZ70Wt7m--9" value="User1 est" style="rounded=0;whiteSpace=wrap;html=1;" parent="653XAPUzcPICb7R3QCx9-2" vertex="1">
          <mxGeometry x="151" y="90" width="69" height="34" as="geometry" />
        </mxCell>
        <mxCell id="VqaUVUZdWkBCZ70Wt7m--10" value="User2 est" style="rounded=0;whiteSpace=wrap;html=1;" parent="653XAPUzcPICb7R3QCx9-2" vertex="1">
          <mxGeometry x="220" y="90" width="60" height="34" as="geometry" />
        </mxCell>
        <mxCell id="VqaUVUZdWkBCZ70Wt7m--11" value="Remove Task" style="rounded=0;whiteSpace=wrap;html=1;" parent="653XAPUzcPICb7R3QCx9-2" vertex="1">
          <mxGeometry x="360" y="90" width="80" height="34" as="geometry" />
        </mxCell>
        <mxCell id="VqaUVUZdWkBCZ70Wt7m--13" value="Permanent" style="rounded=0;whiteSpace=wrap;html=1;" parent="653XAPUzcPICb7R3QCx9-2" vertex="1">
          <mxGeometry x="17.5" y="124" width="72.5" height="34" as="geometry" />
        </mxCell>
        <mxCell id="VqaUVUZdWkBCZ70Wt7m--14" value="" style="rounded=0;whiteSpace=wrap;html=1;" parent="653XAPUzcPICb7R3QCx9-2" vertex="1">
          <mxGeometry x="82" y="124" width="78" height="34" as="geometry" />
        </mxCell>
        <mxCell id="VqaUVUZdWkBCZ70Wt7m--15" value="" style="rounded=0;whiteSpace=wrap;html=1;" parent="653XAPUzcPICb7R3QCx9-2" vertex="1">
          <mxGeometry x="151" y="124" width="69" height="34" as="geometry" />
        </mxCell>
        <mxCell id="VqaUVUZdWkBCZ70Wt7m--16" value="" style="rounded=0;whiteSpace=wrap;html=1;" parent="653XAPUzcPICb7R3QCx9-2" vertex="1">
          <mxGeometry x="220" y="124" width="60" height="34" as="geometry" />
        </mxCell>
        <mxCell id="VqaUVUZdWkBCZ70Wt7m--17" value="" style="rounded=0;whiteSpace=wrap;html=1;" parent="653XAPUzcPICb7R3QCx9-2" vertex="1">
          <mxGeometry x="360" y="124" width="80" height="34" as="geometry" />
        </mxCell>
        <mxCell id="VqaUVUZdWkBCZ70Wt7m--18" value="Permanent" style="rounded=0;whiteSpace=wrap;html=1;" parent="653XAPUzcPICb7R3QCx9-2" vertex="1">
          <mxGeometry x="17.5" y="158" width="72.5" height="34" as="geometry" />
        </mxCell>
        <mxCell id="VqaUVUZdWkBCZ70Wt7m--19" value="" style="rounded=0;whiteSpace=wrap;html=1;" parent="653XAPUzcPICb7R3QCx9-2" vertex="1">
          <mxGeometry x="82" y="158" width="78" height="34" as="geometry" />
        </mxCell>
        <mxCell id="VqaUVUZdWkBCZ70Wt7m--20" value="" style="rounded=0;whiteSpace=wrap;html=1;" parent="653XAPUzcPICb7R3QCx9-2" vertex="1">
          <mxGeometry x="151" y="158" width="69" height="34" as="geometry" />
        </mxCell>
        <mxCell id="VqaUVUZdWkBCZ70Wt7m--21" value="" style="rounded=0;whiteSpace=wrap;html=1;" parent="653XAPUzcPICb7R3QCx9-2" vertex="1">
          <mxGeometry x="220" y="158" width="60" height="34" as="geometry" />
        </mxCell>
        <mxCell id="VqaUVUZdWkBCZ70Wt7m--22" value="" style="rounded=0;whiteSpace=wrap;html=1;" parent="653XAPUzcPICb7R3QCx9-2" vertex="1">
          <mxGeometry x="360" y="158" width="80" height="34" as="geometry" />
        </mxCell>
        <mxCell id="VqaUVUZdWkBCZ70Wt7m--23" value="Permanent" style="rounded=0;whiteSpace=wrap;html=1;" parent="653XAPUzcPICb7R3QCx9-2" vertex="1">
          <mxGeometry x="17.5" y="190" width="72.5" height="34" as="geometry" />
        </mxCell>
        <mxCell id="VqaUVUZdWkBCZ70Wt7m--24" value="" style="rounded=0;whiteSpace=wrap;html=1;" parent="653XAPUzcPICb7R3QCx9-2" vertex="1">
          <mxGeometry x="82" y="190" width="78" height="34" as="geometry" />
        </mxCell>
        <mxCell id="VqaUVUZdWkBCZ70Wt7m--25" value="" style="rounded=0;whiteSpace=wrap;html=1;" parent="653XAPUzcPICb7R3QCx9-2" vertex="1">
          <mxGeometry x="151" y="190" width="69" height="34" as="geometry" />
        </mxCell>
        <mxCell id="VqaUVUZdWkBCZ70Wt7m--26" value="" style="rounded=0;whiteSpace=wrap;html=1;" parent="653XAPUzcPICb7R3QCx9-2" vertex="1">
          <mxGeometry x="220" y="190" width="60" height="34" as="geometry" />
        </mxCell>
        <mxCell id="VqaUVUZdWkBCZ70Wt7m--27" value="" style="rounded=0;whiteSpace=wrap;html=1;" parent="653XAPUzcPICb7R3QCx9-2" vertex="1">
          <mxGeometry x="360" y="190" width="80" height="34" as="geometry" />
        </mxCell>
        <mxCell id="VqaUVUZdWkBCZ70Wt7m--28" value="" style="shape=image;html=1;verticalAlign=top;verticalLabelPosition=bottom;labelBackgroundColor=#ffffff;imageAspect=0;aspect=fixed;image=https://cdn4.iconfinder.com/data/icons/essentials-74/24/013_-_Trash-128.png" parent="653XAPUzcPICb7R3QCx9-2" vertex="1">
          <mxGeometry x="386" y="127" width="28" height="28" as="geometry" />
        </mxCell>
        <mxCell id="VqaUVUZdWkBCZ70Wt7m--29" value="Add task" style="rounded=1;whiteSpace=wrap;html=1;" parent="653XAPUzcPICb7R3QCx9-2" vertex="1">
          <mxGeometry x="13.75" y="390" width="80" height="20" as="geometry" />
        </mxCell>
        <mxCell id="VqaUVUZdWkBCZ70Wt7m--39" value="Temporary" style="rounded=0;whiteSpace=wrap;html=1;" parent="653XAPUzcPICb7R3QCx9-2" vertex="1">
          <mxGeometry x="17.5" y="224" width="72.5" height="34" as="geometry" />
        </mxCell>
        <mxCell id="VqaUVUZdWkBCZ70Wt7m--40" value="" style="rounded=0;whiteSpace=wrap;html=1;" parent="653XAPUzcPICb7R3QCx9-2" vertex="1">
          <mxGeometry x="82" y="224" width="78" height="34" as="geometry" />
        </mxCell>
        <mxCell id="VqaUVUZdWkBCZ70Wt7m--41" value="" style="rounded=0;whiteSpace=wrap;html=1;" parent="653XAPUzcPICb7R3QCx9-2" vertex="1">
          <mxGeometry x="151" y="224" width="69" height="34" as="geometry" />
        </mxCell>
        <mxCell id="VqaUVUZdWkBCZ70Wt7m--42" value="" style="rounded=0;whiteSpace=wrap;html=1;" parent="653XAPUzcPICb7R3QCx9-2" vertex="1">
          <mxGeometry x="220" y="224" width="60" height="34" as="geometry" />
        </mxCell>
        <mxCell id="VqaUVUZdWkBCZ70Wt7m--43" value="" style="rounded=0;whiteSpace=wrap;html=1;" parent="653XAPUzcPICb7R3QCx9-2" vertex="1">
          <mxGeometry x="360" y="224" width="80" height="34" as="geometry" />
        </mxCell>
        <mxCell id="VqaUVUZdWkBCZ70Wt7m--44" value="Generate Task List" style="rounded=1;whiteSpace=wrap;html=1;" parent="653XAPUzcPICb7R3QCx9-2" vertex="1">
          <mxGeometry x="260" y="390" width="110" height="20" as="geometry" />
        </mxCell>
        <mxCell id="VqaUVUZdWkBCZ70Wt7m--52" value="Home" style="rounded=1;whiteSpace=wrap;html=1;" parent="653XAPUzcPICb7R3QCx9-2" vertex="1">
          <mxGeometry x="17.5" y="50" width="76" height="15" as="geometry" />
        </mxCell>
        <mxCell id="VqaUVUZdWkBCZ70Wt7m--53" value="Create Weekly Chores List" style="rounded=1;whiteSpace=wrap;html=1;" parent="653XAPUzcPICb7R3QCx9-2" vertex="1">
          <mxGeometry x="107.5" y="50" width="76" height="40" as="geometry" />
        </mxCell>
        <mxCell id="VqaUVUZdWkBCZ70Wt7m--54" value="View Task" style="rounded=1;whiteSpace=wrap;html=1;" parent="653XAPUzcPICb7R3QCx9-2" vertex="1">
          <mxGeometry x="197.5" y="50" width="76" height="15" as="geometry" />
        </mxCell>
        <mxCell id="VqaUVUZdWkBCZ70Wt7m--55" value="Achievement" style="rounded=1;whiteSpace=wrap;html=1;" parent="653XAPUzcPICb7R3QCx9-2" vertex="1">
          <mxGeometry x="287.5" y="50" width="76" height="15" as="geometry" />
        </mxCell>
        <mxCell id="jNKQTwlEJxSlMww0d9lN-2" value="status" style="rounded=0;whiteSpace=wrap;html=1;" parent="653XAPUzcPICb7R3QCx9-2" vertex="1">
          <mxGeometry x="280" y="90" width="80" height="34" as="geometry" />
        </mxCell>
        <mxCell id="jNKQTwlEJxSlMww0d9lN-3" value="Assigned" style="rounded=0;whiteSpace=wrap;html=1;" parent="653XAPUzcPICb7R3QCx9-2" vertex="1">
          <mxGeometry x="280" y="124" width="80" height="34" as="geometry" />
        </mxCell>
        <mxCell id="jNKQTwlEJxSlMww0d9lN-4" value="Not Assingned" style="rounded=0;whiteSpace=wrap;html=1;" parent="653XAPUzcPICb7R3QCx9-2" vertex="1">
          <mxGeometry x="280" y="158" width="80" height="34" as="geometry" />
        </mxCell>
        <mxCell id="jNKQTwlEJxSlMww0d9lN-5" value="Done(Disbaled)" style="rounded=0;whiteSpace=wrap;html=1;" parent="653XAPUzcPICb7R3QCx9-2" vertex="1">
          <mxGeometry x="280" y="190" width="80" height="34" as="geometry" />
        </mxCell>
        <mxCell id="jNKQTwlEJxSlMww0d9lN-7" value="Not Done(Disabled)" style="rounded=0;whiteSpace=wrap;html=1;" parent="653XAPUzcPICb7R3QCx9-2" vertex="1">
          <mxGeometry x="280" y="224" width="80" height="34" as="geometry" />
        </mxCell>
        <mxCell id="52yYqZ3K_uvhH1gT-9aL-1" value="Cancel" style="rounded=1;whiteSpace=wrap;html=1;" parent="653XAPUzcPICb7R3QCx9-2" vertex="1">
          <mxGeometry x="15.5" y="424" width="80" height="20" as="geometry" />
        </mxCell>
        <mxCell id="653XAPUzcPICb7R3QCx9-3" value="" style="group" vertex="1" connectable="0" parent="1">
          <mxGeometry x="1160" y="77" width="390" height="394" as="geometry" />
        </mxCell>
        <mxCell id="VqaUVUZdWkBCZ70Wt7m--82" value="" style="whiteSpace=wrap;html=1;aspect=fixed;" parent="653XAPUzcPICb7R3QCx9-3" vertex="1">
          <mxGeometry y="4" width="390" height="390" as="geometry" />
        </mxCell>
        <mxCell id="VqaUVUZdWkBCZ70Wt7m--83" value="View-task" style="text;html=1;strokeColor=none;fillColor=none;align=center;verticalAlign=middle;whiteSpace=wrap;rounded=0;" parent="653XAPUzcPICb7R3QCx9-3" vertex="1">
          <mxGeometry x="147.5" width="95" height="30" as="geometry" />
        </mxCell>
        <mxCell id="VqaUVUZdWkBCZ70Wt7m--84" value="Task" style="rounded=0;whiteSpace=wrap;html=1;" parent="653XAPUzcPICb7R3QCx9-3" vertex="1">
          <mxGeometry x="27.5" y="89" width="72.5" height="34" as="geometry" />
        </mxCell>
        <mxCell id="VqaUVUZdWkBCZ70Wt7m--85" value="Desc" style="rounded=0;whiteSpace=wrap;html=1;" parent="653XAPUzcPICb7R3QCx9-3" vertex="1">
          <mxGeometry x="92" y="89" width="78" height="34" as="geometry" />
        </mxCell>
        <mxCell id="VqaUVUZdWkBCZ70Wt7m--86" value="User1 Task" style="rounded=0;whiteSpace=wrap;html=1;" parent="653XAPUzcPICb7R3QCx9-3" vertex="1">
          <mxGeometry x="161" y="89" width="69" height="34" as="geometry" />
        </mxCell>
        <mxCell id="VqaUVUZdWkBCZ70Wt7m--87" value="User2 Task" style="rounded=0;whiteSpace=wrap;html=1;" parent="653XAPUzcPICb7R3QCx9-3" vertex="1">
          <mxGeometry x="230" y="89" width="60" height="34" as="geometry" />
        </mxCell>
        <mxCell id="VqaUVUZdWkBCZ70Wt7m--88" value="status" style="rounded=0;whiteSpace=wrap;html=1;" parent="653XAPUzcPICb7R3QCx9-3" vertex="1">
          <mxGeometry x="290" y="89" width="80" height="34" as="geometry" />
        </mxCell>
        <mxCell id="VqaUVUZdWkBCZ70Wt7m--89" value="Permanent" style="rounded=0;whiteSpace=wrap;html=1;" parent="653XAPUzcPICb7R3QCx9-3" vertex="1">
          <mxGeometry x="27.5" y="123" width="72.5" height="34" as="geometry" />
        </mxCell>
        <mxCell id="VqaUVUZdWkBCZ70Wt7m--90" value="" style="rounded=0;whiteSpace=wrap;html=1;" parent="653XAPUzcPICb7R3QCx9-3" vertex="1">
          <mxGeometry x="92" y="123" width="78" height="34" as="geometry" />
        </mxCell>
        <mxCell id="VqaUVUZdWkBCZ70Wt7m--91" value="Yes" style="rounded=0;whiteSpace=wrap;html=1;" parent="653XAPUzcPICb7R3QCx9-3" vertex="1">
          <mxGeometry x="161" y="123" width="69" height="34" as="geometry" />
        </mxCell>
        <mxCell id="VqaUVUZdWkBCZ70Wt7m--92" value="No" style="rounded=0;whiteSpace=wrap;html=1;" parent="653XAPUzcPICb7R3QCx9-3" vertex="1">
          <mxGeometry x="230" y="123" width="60" height="34" as="geometry" />
        </mxCell>
        <mxCell id="VqaUVUZdWkBCZ70Wt7m--93" value="Done" style="rounded=0;whiteSpace=wrap;html=1;" parent="653XAPUzcPICb7R3QCx9-3" vertex="1">
          <mxGeometry x="290" y="123" width="80" height="34" as="geometry" />
        </mxCell>
        <mxCell id="VqaUVUZdWkBCZ70Wt7m--94" value="Permanent" style="rounded=0;whiteSpace=wrap;html=1;" parent="653XAPUzcPICb7R3QCx9-3" vertex="1">
          <mxGeometry x="27.5" y="157" width="72.5" height="34" as="geometry" />
        </mxCell>
        <mxCell id="VqaUVUZdWkBCZ70Wt7m--95" value="" style="rounded=0;whiteSpace=wrap;html=1;" parent="653XAPUzcPICb7R3QCx9-3" vertex="1">
          <mxGeometry x="92" y="157" width="78" height="34" as="geometry" />
        </mxCell>
        <mxCell id="VqaUVUZdWkBCZ70Wt7m--96" value="No" style="rounded=0;whiteSpace=wrap;html=1;" parent="653XAPUzcPICb7R3QCx9-3" vertex="1">
          <mxGeometry x="161" y="157" width="69" height="34" as="geometry" />
        </mxCell>
        <mxCell id="VqaUVUZdWkBCZ70Wt7m--97" value="Yes" style="rounded=0;whiteSpace=wrap;html=1;" parent="653XAPUzcPICb7R3QCx9-3" vertex="1">
          <mxGeometry x="230" y="157" width="60" height="34" as="geometry" />
        </mxCell>
        <mxCell id="VqaUVUZdWkBCZ70Wt7m--98" value="Not-done" style="rounded=0;whiteSpace=wrap;html=1;" parent="653XAPUzcPICb7R3QCx9-3" vertex="1">
          <mxGeometry x="290" y="157" width="80" height="34" as="geometry" />
        </mxCell>
        <mxCell id="VqaUVUZdWkBCZ70Wt7m--99" value="Permanent" style="rounded=0;whiteSpace=wrap;html=1;" parent="653XAPUzcPICb7R3QCx9-3" vertex="1">
          <mxGeometry x="27.5" y="189" width="72.5" height="34" as="geometry" />
        </mxCell>
        <mxCell id="VqaUVUZdWkBCZ70Wt7m--100" value="" style="rounded=0;whiteSpace=wrap;html=1;" parent="653XAPUzcPICb7R3QCx9-3" vertex="1">
          <mxGeometry x="92" y="189" width="78" height="34" as="geometry" />
        </mxCell>
        <mxCell id="VqaUVUZdWkBCZ70Wt7m--101" value="" style="rounded=0;whiteSpace=wrap;html=1;" parent="653XAPUzcPICb7R3QCx9-3" vertex="1">
          <mxGeometry x="161" y="189" width="69" height="34" as="geometry" />
        </mxCell>
        <mxCell id="VqaUVUZdWkBCZ70Wt7m--102" value="" style="rounded=0;whiteSpace=wrap;html=1;" parent="653XAPUzcPICb7R3QCx9-3" vertex="1">
          <mxGeometry x="230" y="189" width="60" height="34" as="geometry" />
        </mxCell>
        <mxCell id="VqaUVUZdWkBCZ70Wt7m--103" value="Assigned/not(Disable)" style="rounded=0;whiteSpace=wrap;html=1;" parent="653XAPUzcPICb7R3QCx9-3" vertex="1">
          <mxGeometry x="290" y="189" width="80" height="34" as="geometry" />
        </mxCell>
        <mxCell id="VqaUVUZdWkBCZ70Wt7m--112" value="Home" style="rounded=1;whiteSpace=wrap;html=1;" parent="653XAPUzcPICb7R3QCx9-3" vertex="1">
          <mxGeometry x="27.5" y="24" width="76" height="15" as="geometry" />
        </mxCell>
        <mxCell id="VqaUVUZdWkBCZ70Wt7m--113" value="Create Weekly Chores List" style="rounded=1;whiteSpace=wrap;html=1;" parent="653XAPUzcPICb7R3QCx9-3" vertex="1">
          <mxGeometry x="117.5" y="24" width="76" height="40" as="geometry" />
        </mxCell>
        <mxCell id="VqaUVUZdWkBCZ70Wt7m--114" value="View Task" style="rounded=1;whiteSpace=wrap;html=1;" parent="653XAPUzcPICb7R3QCx9-3" vertex="1">
          <mxGeometry x="207.5" y="24" width="76" height="15" as="geometry" />
        </mxCell>
        <mxCell id="VqaUVUZdWkBCZ70Wt7m--115" value="Achievement" style="rounded=1;whiteSpace=wrap;html=1;" parent="653XAPUzcPICb7R3QCx9-3" vertex="1">
          <mxGeometry x="297.5" y="24" width="76" height="15" as="geometry" />
        </mxCell>
        <mxCell id="VqaUVUZdWkBCZ70Wt7m--116" value="" style="shape=image;html=1;verticalAlign=top;verticalLabelPosition=bottom;labelBackgroundColor=#ffffff;imageAspect=0;aspect=fixed;image=https://cdn4.iconfinder.com/data/icons/48-bubbles/48/43.Bell-128.png" parent="653XAPUzcPICb7R3QCx9-3" vertex="1">
          <mxGeometry x="370" y="7.25" width="15.5" height="15.5" as="geometry" />
        </mxCell>
        <mxCell id="VqaUVUZdWkBCZ70Wt7m--117" value="This Week Task List" style="rounded=0;whiteSpace=wrap;html=1;" parent="653XAPUzcPICb7R3QCx9-3" vertex="1">
          <mxGeometry x="27.5" y="69" width="342.5" height="20" as="geometry" />
        </mxCell>
        <mxCell id="VqaUVUZdWkBCZ70Wt7m--118" value="Task" style="rounded=0;whiteSpace=wrap;html=1;" parent="653XAPUzcPICb7R3QCx9-3" vertex="1">
          <mxGeometry x="31" y="260" width="72.5" height="34" as="geometry" />
        </mxCell>
        <mxCell id="VqaUVUZdWkBCZ70Wt7m--119" value="Desc" style="rounded=0;whiteSpace=wrap;html=1;" parent="653XAPUzcPICb7R3QCx9-3" vertex="1">
          <mxGeometry x="95.5" y="260" width="78" height="34" as="geometry" />
        </mxCell>
        <mxCell id="VqaUVUZdWkBCZ70Wt7m--139" value="" style="edgeStyle=orthogonalEdgeStyle;rounded=0;orthogonalLoop=1;jettySize=auto;html=1;" parent="653XAPUzcPICb7R3QCx9-3" source="VqaUVUZdWkBCZ70Wt7m--120" target="VqaUVUZdWkBCZ70Wt7m--102" edge="1">
          <mxGeometry relative="1" as="geometry" />
        </mxCell>
        <mxCell id="VqaUVUZdWkBCZ70Wt7m--120" value="User1 Task" style="rounded=0;whiteSpace=wrap;html=1;" parent="653XAPUzcPICb7R3QCx9-3" vertex="1">
          <mxGeometry x="164.5" y="260" width="69" height="34" as="geometry" />
        </mxCell>
        <mxCell id="VqaUVUZdWkBCZ70Wt7m--121" value="User2 Task" style="rounded=0;whiteSpace=wrap;html=1;" parent="653XAPUzcPICb7R3QCx9-3" vertex="1">
          <mxGeometry x="233.5" y="260" width="60" height="34" as="geometry" />
        </mxCell>
        <mxCell id="VqaUVUZdWkBCZ70Wt7m--122" value="Task Status" style="rounded=0;whiteSpace=wrap;html=1;" parent="653XAPUzcPICb7R3QCx9-3" vertex="1">
          <mxGeometry x="293.5" y="260" width="80" height="34" as="geometry" />
        </mxCell>
        <mxCell id="VqaUVUZdWkBCZ70Wt7m--123" value="Permanent" style="rounded=0;whiteSpace=wrap;html=1;" parent="653XAPUzcPICb7R3QCx9-3" vertex="1">
          <mxGeometry x="31" y="294" width="72.5" height="34" as="geometry" />
        </mxCell>
        <mxCell id="VqaUVUZdWkBCZ70Wt7m--124" value="" style="rounded=0;whiteSpace=wrap;html=1;" parent="653XAPUzcPICb7R3QCx9-3" vertex="1">
          <mxGeometry x="95.5" y="294" width="78" height="34" as="geometry" />
        </mxCell>
        <mxCell id="VqaUVUZdWkBCZ70Wt7m--125" value="" style="rounded=0;whiteSpace=wrap;html=1;" parent="653XAPUzcPICb7R3QCx9-3" vertex="1">
          <mxGeometry x="164.5" y="294" width="69" height="34" as="geometry" />
        </mxCell>
        <mxCell id="VqaUVUZdWkBCZ70Wt7m--126" value="" style="rounded=0;whiteSpace=wrap;html=1;" parent="653XAPUzcPICb7R3QCx9-3" vertex="1">
          <mxGeometry x="233.5" y="294" width="60" height="34" as="geometry" />
        </mxCell>
        <mxCell id="VqaUVUZdWkBCZ70Wt7m--127" value="Done" style="rounded=0;whiteSpace=wrap;html=1;" parent="653XAPUzcPICb7R3QCx9-3" vertex="1">
          <mxGeometry x="293.5" y="294" width="80" height="34" as="geometry" />
        </mxCell>
        <mxCell id="VqaUVUZdWkBCZ70Wt7m--128" value="Permanent" style="rounded=0;whiteSpace=wrap;html=1;" parent="653XAPUzcPICb7R3QCx9-3" vertex="1">
          <mxGeometry x="31" y="328" width="72.5" height="34" as="geometry" />
        </mxCell>
        <mxCell id="VqaUVUZdWkBCZ70Wt7m--129" value="" style="rounded=0;whiteSpace=wrap;html=1;" parent="653XAPUzcPICb7R3QCx9-3" vertex="1">
          <mxGeometry x="95.5" y="328" width="78" height="34" as="geometry" />
        </mxCell>
        <mxCell id="VqaUVUZdWkBCZ70Wt7m--130" value="" style="rounded=0;whiteSpace=wrap;html=1;" parent="653XAPUzcPICb7R3QCx9-3" vertex="1">
          <mxGeometry x="164.5" y="328" width="69" height="34" as="geometry" />
        </mxCell>
        <mxCell id="VqaUVUZdWkBCZ70Wt7m--131" value="" style="rounded=0;whiteSpace=wrap;html=1;" parent="653XAPUzcPICb7R3QCx9-3" vertex="1">
          <mxGeometry x="233.5" y="328" width="60" height="34" as="geometry" />
        </mxCell>
        <mxCell id="VqaUVUZdWkBCZ70Wt7m--132" value="Done" style="rounded=0;whiteSpace=wrap;html=1;" parent="653XAPUzcPICb7R3QCx9-3" vertex="1">
          <mxGeometry x="293.5" y="328" width="80" height="34" as="geometry" />
        </mxCell>
        <mxCell id="VqaUVUZdWkBCZ70Wt7m--133" value="Permanent" style="rounded=0;whiteSpace=wrap;html=1;" parent="653XAPUzcPICb7R3QCx9-3" vertex="1">
          <mxGeometry x="31" y="360" width="72.5" height="34" as="geometry" />
        </mxCell>
        <mxCell id="VqaUVUZdWkBCZ70Wt7m--134" value="" style="rounded=0;whiteSpace=wrap;html=1;" parent="653XAPUzcPICb7R3QCx9-3" vertex="1">
          <mxGeometry x="95.5" y="360" width="78" height="34" as="geometry" />
        </mxCell>
        <mxCell id="VqaUVUZdWkBCZ70Wt7m--135" value="" style="rounded=0;whiteSpace=wrap;html=1;" parent="653XAPUzcPICb7R3QCx9-3" vertex="1">
          <mxGeometry x="164.5" y="360" width="69" height="34" as="geometry" />
        </mxCell>
        <mxCell id="VqaUVUZdWkBCZ70Wt7m--136" value="" style="rounded=0;whiteSpace=wrap;html=1;" parent="653XAPUzcPICb7R3QCx9-3" vertex="1">
          <mxGeometry x="233.5" y="360" width="60" height="34" as="geometry" />
        </mxCell>
        <mxCell id="VqaUVUZdWkBCZ70Wt7m--137" value="Done" style="rounded=0;whiteSpace=wrap;html=1;" parent="653XAPUzcPICb7R3QCx9-3" vertex="1">
          <mxGeometry x="293.5" y="360" width="80" height="34" as="geometry" />
        </mxCell>
        <mxCell id="VqaUVUZdWkBCZ70Wt7m--138" value="Last Week Done Task List" style="rounded=0;whiteSpace=wrap;html=1;" parent="653XAPUzcPICb7R3QCx9-3" vertex="1">
          <mxGeometry x="31" y="240" width="342.5" height="20" as="geometry" />
        </mxCell>
        <mxCell id="653XAPUzcPICb7R3QCx9-4" value="" style="group" vertex="1" connectable="0" parent="1">
          <mxGeometry x="1602" y="80" width="230" height="360" as="geometry" />
        </mxCell>
        <mxCell id="VqaUVUZdWkBCZ70Wt7m--153" value="" style="rounded=1;whiteSpace=wrap;html=1;dashed=1;" parent="653XAPUzcPICb7R3QCx9-4" vertex="1">
          <mxGeometry width="230" height="360" as="geometry" />
        </mxCell>
        <mxCell id="VqaUVUZdWkBCZ70Wt7m--154" value="Alert" style="text;html=1;strokeColor=none;fillColor=none;align=center;verticalAlign=middle;whiteSpace=wrap;rounded=0;" parent="653XAPUzcPICb7R3QCx9-4" vertex="1">
          <mxGeometry x="85" y="5" width="60" height="30" as="geometry" />
        </mxCell>
        <mxCell id="VqaUVUZdWkBCZ70Wt7m--155" value="" style="rounded=1;whiteSpace=wrap;html=1;" parent="653XAPUzcPICb7R3QCx9-4" vertex="1">
          <mxGeometry x="25" y="50" width="185" height="40" as="geometry" />
        </mxCell>
        <mxCell id="VqaUVUZdWkBCZ70Wt7m--156" value="In-complete Task" style="text;html=1;strokeColor=none;fillColor=none;align=center;verticalAlign=middle;whiteSpace=wrap;rounded=0;" parent="653XAPUzcPICb7R3QCx9-4" vertex="1">
          <mxGeometry x="64" y="43" width="110" height="30" as="geometry" />
        </mxCell>
        <mxCell id="VqaUVUZdWkBCZ70Wt7m--157" value="Task-name" style="text;html=1;strokeColor=none;fillColor=none;align=center;verticalAlign=middle;whiteSpace=wrap;rounded=0;" parent="653XAPUzcPICb7R3QCx9-4" vertex="1">
          <mxGeometry x="25" y="60" width="75" height="30" as="geometry" />
        </mxCell>
        <mxCell id="VqaUVUZdWkBCZ70Wt7m--158" value="User Name doing it" style="text;html=1;strokeColor=none;fillColor=none;align=center;verticalAlign=middle;whiteSpace=wrap;rounded=0;" parent="653XAPUzcPICb7R3QCx9-4" vertex="1">
          <mxGeometry x="104" y="60" width="105" height="30" as="geometry" />
        </mxCell>
        <mxCell id="VqaUVUZdWkBCZ70Wt7m--159" value="close" style="rounded=1;whiteSpace=wrap;html=1;" parent="653XAPUzcPICb7R3QCx9-4" vertex="1">
          <mxGeometry x="123" y="321" width="80" height="20" as="geometry" />
        </mxCell>
        <mxCell id="653XAPUzcPICb7R3QCx9-5" value="" style="group" vertex="1" connectable="0" parent="1">
          <mxGeometry x="639" y="560" width="394" height="390" as="geometry" />
        </mxCell>
        <mxCell id="VqaUVUZdWkBCZ70Wt7m--141" value="" style="whiteSpace=wrap;html=1;aspect=fixed;fontStyle=1" parent="653XAPUzcPICb7R3QCx9-5" vertex="1">
          <mxGeometry x="4" width="390" height="390" as="geometry" />
        </mxCell>
        <mxCell id="VqaUVUZdWkBCZ70Wt7m--142" value="Achievement" style="text;html=1;strokeColor=none;fillColor=none;align=center;verticalAlign=middle;whiteSpace=wrap;rounded=0;" parent="653XAPUzcPICb7R3QCx9-5" vertex="1">
          <mxGeometry x="148.5" y="5" width="95" height="30" as="geometry" />
        </mxCell>
        <mxCell id="VqaUVUZdWkBCZ70Wt7m--143" value="Home" style="rounded=1;whiteSpace=wrap;html=1;" parent="653XAPUzcPICb7R3QCx9-5" vertex="1">
          <mxGeometry x="14" y="40" width="76" height="15" as="geometry" />
        </mxCell>
        <mxCell id="VqaUVUZdWkBCZ70Wt7m--144" value="Create Weekly Chores List" style="rounded=1;whiteSpace=wrap;html=1;" parent="653XAPUzcPICb7R3QCx9-5" vertex="1">
          <mxGeometry x="104" y="40" width="76" height="40" as="geometry" />
        </mxCell>
        <mxCell id="VqaUVUZdWkBCZ70Wt7m--145" value="View Task" style="rounded=1;whiteSpace=wrap;html=1;" parent="653XAPUzcPICb7R3QCx9-5" vertex="1">
          <mxGeometry x="194" y="40" width="76" height="15" as="geometry" />
        </mxCell>
        <mxCell id="VqaUVUZdWkBCZ70Wt7m--146" value="Achievement" style="rounded=1;whiteSpace=wrap;html=1;" parent="653XAPUzcPICb7R3QCx9-5" vertex="1">
          <mxGeometry x="284" y="40" width="76" height="15" as="geometry" />
        </mxCell>
        <mxCell id="XX2jFR_vDhJVu820eyDR-3" value="Your current badge is" style="text;html=1;strokeColor=none;fillColor=none;align=center;verticalAlign=middle;whiteSpace=wrap;rounded=0;" parent="653XAPUzcPICb7R3QCx9-5" vertex="1">
          <mxGeometry x="4" y="90" width="180" height="30" as="geometry" />
        </mxCell>
        <mxCell id="XX2jFR_vDhJVu820eyDR-4" value="Bronze - 06 March" style="rounded=1;whiteSpace=wrap;html=1;fillColor=#a0522d;fontColor=#ffffff;strokeColor=#6D1F00;" parent="653XAPUzcPICb7R3QCx9-5" vertex="1">
          <mxGeometry x="233" y="90" width="117.5" height="30" as="geometry" />
        </mxCell>
        <mxCell id="XX2jFR_vDhJVu820eyDR-5" value="Last Week" style="text;html=1;strokeColor=none;fillColor=none;align=center;verticalAlign=middle;whiteSpace=wrap;rounded=0;" parent="653XAPUzcPICb7R3QCx9-5" vertex="1">
          <mxGeometry y="150" width="180" height="30" as="geometry" />
        </mxCell>
        <mxCell id="XX2jFR_vDhJVu820eyDR-6" value="Gold" style="rounded=1;whiteSpace=wrap;html=1;fillColor=#f0a30a;fontColor=#000000;strokeColor=#BD7000;" parent="653XAPUzcPICb7R3QCx9-5" vertex="1">
          <mxGeometry x="233" y="146" width="117.5" height="30" as="geometry" />
        </mxCell>
        <mxCell id="XX2jFR_vDhJVu820eyDR-7" value="2 Weeks ago" style="text;html=1;strokeColor=none;fillColor=none;align=center;verticalAlign=middle;whiteSpace=wrap;rounded=0;" parent="653XAPUzcPICb7R3QCx9-5" vertex="1">
          <mxGeometry x="4" y="210" width="180" height="30" as="geometry" />
        </mxCell>
        <mxCell id="XX2jFR_vDhJVu820eyDR-8" value="Dimond" style="rounded=1;whiteSpace=wrap;html=1;fillColor=#b1ddf0;strokeColor=#10739e;" parent="653XAPUzcPICb7R3QCx9-5" vertex="1">
          <mxGeometry x="233" y="206" width="117.5" height="30" as="geometry" />
        </mxCell>
        <mxCell id="XX2jFR_vDhJVu820eyDR-9" value="By 06 March you get this Bronze Badge." style="text;html=1;strokeColor=none;fillColor=none;align=center;verticalAlign=middle;whiteSpace=wrap;rounded=0;" parent="653XAPUzcPICb7R3QCx9-5" vertex="1">
          <mxGeometry x="165.5" y="120" width="223.75" height="30" as="geometry" />
        </mxCell>
        <mxCell id="653XAPUzcPICb7R3QCx9-6" value="" style="group" vertex="1" connectable="0" parent="1">
          <mxGeometry x="1160" y="520" width="329" height="130" as="geometry" />
        </mxCell>
        <mxCell id="VqaUVUZdWkBCZ70Wt7m--72" value="" style="rounded=0;whiteSpace=wrap;html=1;dashed=1;dashPattern=12 12;container=1;" parent="653XAPUzcPICb7R3QCx9-6" vertex="1">
          <mxGeometry width="329" height="130" as="geometry" />
        </mxCell>
        <mxCell id="VqaUVUZdWkBCZ70Wt7m--75" value="help instructions" style="text;html=1;strokeColor=none;fillColor=none;align=center;verticalAlign=middle;whiteSpace=wrap;rounded=0;" parent="653XAPUzcPICb7R3QCx9-6" vertex="1">
          <mxGeometry x="10" y="15" width="317.25" height="75" as="geometry" />
        </mxCell>
        <mxCell id="VqaUVUZdWkBCZ70Wt7m--77" value="close" style="rounded=1;whiteSpace=wrap;html=1;" parent="653XAPUzcPICb7R3QCx9-6" vertex="1">
          <mxGeometry x="220" y="100" width="80" height="20" as="geometry" />
        </mxCell>
        <mxCell id="653XAPUzcPICb7R3QCx9-7" value="" style="group" vertex="1" connectable="0" parent="1">
          <mxGeometry x="160" y="515" width="391.13" height="395" as="geometry" />
        </mxCell>
        <mxCell id="VqaUVUZdWkBCZ70Wt7m--65" value="" style="whiteSpace=wrap;html=1;aspect=fixed;" parent="653XAPUzcPICb7R3QCx9-7" vertex="1">
          <mxGeometry x="1.1299999999999955" y="5" width="390" height="390" as="geometry" />
        </mxCell>
        <mxCell id="VqaUVUZdWkBCZ70Wt7m--66" value="User 1 Profile" style="text;html=1;strokeColor=none;fillColor=none;align=center;verticalAlign=middle;whiteSpace=wrap;rounded=0;" parent="653XAPUzcPICb7R3QCx9-7" vertex="1">
          <mxGeometry x="144.5" width="95" height="30" as="geometry" />
        </mxCell>
        <mxCell id="VqaUVUZdWkBCZ70Wt7m--67" value="Home" style="strokeWidth=1;html=1;shadow=0;dashed=0;shape=mxgraph.ios.iButtonBack;strokeColor=#444444;fontColor=#ffffff;buttonText=;fontSize=8;fillColor=#dddddd;fillColor2=#3D5565;spacingLeft=10;whiteSpace=wrap;align=center;sketch=0;" parent="653XAPUzcPICb7R3QCx9-7" vertex="1">
          <mxGeometry y="15" width="43.5" height="15" as="geometry" />
        </mxCell>
        <mxCell id="VqaUVUZdWkBCZ70Wt7m--69" value="some personal&amp;nbsp; information" style="text;html=1;strokeColor=none;fillColor=none;align=center;verticalAlign=middle;whiteSpace=wrap;rounded=0;" parent="653XAPUzcPICb7R3QCx9-7" vertex="1">
          <mxGeometry x="91" y="45" width="189" height="30" as="geometry" />
        </mxCell>
        <mxCell id="VqaUVUZdWkBCZ70Wt7m--70" value="Pie chart" style="rounded=0;whiteSpace=wrap;html=1;" parent="653XAPUzcPICb7R3QCx9-7" vertex="1">
          <mxGeometry x="100" y="125" width="120" height="60" as="geometry" />
        </mxCell>
        <mxCell id="VqaUVUZdWkBCZ70Wt7m--71" value="Bar chart" style="rounded=0;whiteSpace=wrap;html=1;" parent="653XAPUzcPICb7R3QCx9-7" vertex="1">
          <mxGeometry x="100" y="245" width="120" height="60" as="geometry" />
        </mxCell>
        <mxCell id="VqaUVUZdWkBCZ70Wt7m--81" value="help" style="rounded=0;whiteSpace=wrap;html=1;" parent="653XAPUzcPICb7R3QCx9-7" vertex="1">
          <mxGeometry x="310" y="10" width="60" height="25" as="geometry" />
        </mxCell>
        <mxCell id="VqaUVUZdWkBCZ70Wt7m--160" value="Streak" style="rounded=0;whiteSpace=wrap;html=1;" parent="653XAPUzcPICb7R3QCx9-7" vertex="1">
          <mxGeometry x="244" y="315" width="120" height="60" as="geometry" />
        </mxCell>
        <mxCell id="653XAPUzcPICb7R3QCx9-9" value="" style="rounded=0;whiteSpace=wrap;html=1;dashed=1;dashPattern=12 12;container=1;" vertex="1" parent="1">
          <mxGeometry x="1160" y="841" width="329" height="130" as="geometry" />
        </mxCell>
        <mxCell id="653XAPUzcPICb7R3QCx9-14" value="Text" style="text;html=1;strokeColor=none;fillColor=none;align=center;verticalAlign=middle;whiteSpace=wrap;rounded=0;" vertex="1" parent="653XAPUzcPICb7R3QCx9-9">
          <mxGeometry x="34" y="19" width="60" height="30" as="geometry" />
        </mxCell>
        <mxCell id="653XAPUzcPICb7R3QCx9-11" value="" style="rounded=1;whiteSpace=wrap;html=1;" vertex="1" parent="1">
          <mxGeometry x="1330" y="858" width="120" height="20" as="geometry" />
        </mxCell>
        <mxCell id="653XAPUzcPICb7R3QCx9-12" value="" style="rounded=1;whiteSpace=wrap;html=1;" vertex="1" parent="1">
          <mxGeometry x="1330" y="889" width="120" height="20" as="geometry" />
        </mxCell>
        <mxCell id="653XAPUzcPICb7R3QCx9-13" value="Text" style="text;html=1;strokeColor=none;fillColor=none;align=center;verticalAlign=middle;whiteSpace=wrap;rounded=0;" vertex="1" parent="1">
          <mxGeometry x="1350" y="900" width="60" height="30" as="geometry" />
        </mxCell>
      </root>
    </mxGraphModel>
  </diagram>
</mxfile>
